<svg width="100" height="100" viewBox="0 0 100 100" fill="none" xmlns="http://www.w3.org/2000/svg">
<g clip-path="url(#clip0_37_588)">
<path d="M100 29.2969V94.1406H70.2012C62.0127 94.1406 57.7062 99.693 57.2676 100H42.7324C42.2875 99.6887 38.0426 94.1406 29.7988 94.1406H0V23.4375H5.85938V88.2812H29.8242C38.9809 88.2812 44.0777 93.4475 45.3477 94.1406H54.6523C55.9217 93.4477 61.0199 88.2812 70.1758 88.2812H94.1406V29.2969H100Z" fill="#6C5DD3"/>
<path d="M41.1973 84.7598C37.6387 83.2207 33.7891 82.4219 29.8242 82.4219H11.7188V11.7188H17.5781V70.7031H26.3672C34.3516 70.7031 40.8828 76.9551 41.1973 84.7598Z" fill="#6C5DD3"/>
<path d="M70.1758 17.5781C63.9699 17.5781 57.9928 19.2039 52.7238 22.3127C52.8599 23.6436 52.9297 24.9969 52.9297 26.3672V88.1584C53.3221 87.8738 53.7707 87.5584 54.2818 87.2228C63.3279 81.1896 69.5609 82.4219 88.2812 82.4219V17.5781H70.1758Z" fill="#6C5DD3"/>
<path d="M47.0703 85.3516C47.0703 74.0436 37.783 64.8438 26.3672 64.8438H23.4375V0C38.0842 0 47.0703 11.8283 47.0703 26.3672V85.3516Z" fill="#6C5DD3"/>
</g>
<defs>
<clipPath id="clip0_37_588">
<rect width="100" height="100" fill="white"/>
</clipPath>
</defs>
</svg>
