<svg width="203" height="64" viewBox="0 0 203 64" fill="none" xmlns="http://www.w3.org/2000/svg">
<path d="M84 6.75843H94.2196C97.0009 6.75843 99.0423 7.31461 100.344 8.42697C101.671 9.51404 102.334 11.2837 102.334 13.736C102.334 15.0506 102.117 16.1376 101.683 16.9972C101.25 17.8567 100.51 18.6152 99.4633 19.2725C100.612 19.7275 101.454 20.4228 101.99 21.3581C102.551 22.2935 102.832 23.5197 102.832 25.0365C102.832 27.5646 102.104 29.448 100.65 30.6868C99.1954 31.9256 97.103 32.5449 94.3727 32.5449H84V6.75843ZM93.9899 17.3764C95.9803 17.3764 96.9754 16.3525 96.9754 14.3048C96.9754 12.257 95.9675 11.2331 93.9517 11.2331H89.282V17.3764H93.9899ZM94.1048 28.0702C95.253 28.0702 96.0951 27.8427 96.6309 27.3876C97.1923 26.9073 97.473 26.111 97.473 24.9986C97.473 23.8862 97.2051 23.0772 96.6692 22.5716C96.1334 22.0407 95.2785 21.7753 94.1048 21.7753H89.282V28.0702H94.1048Z" fill="#11142D"/>
<path d="M114.486 33C111.603 33 109.408 32.1404 107.903 30.4213C106.423 28.677 105.683 26.2121 105.683 23.0267C105.683 19.8666 106.423 17.427 107.903 15.7079C109.408 13.9888 111.603 13.1292 114.486 13.1292C117.37 13.1292 119.551 13.9888 121.031 15.7079C122.537 17.427 123.29 19.8666 123.29 23.0267C123.29 26.2121 122.537 28.677 121.031 30.4213C119.551 32.1404 117.37 33 114.486 33ZM114.486 28.677C115.711 28.677 116.617 28.2346 117.204 27.3497C117.791 26.4649 118.084 25.0239 118.084 23.0267C118.084 21.0295 117.791 19.6011 117.204 18.7416C116.617 17.882 115.711 17.4522 114.486 17.4522C113.261 17.4522 112.356 17.882 111.769 18.7416C111.182 19.6011 110.888 21.0295 110.888 23.0267C110.888 25.0239 111.182 26.4649 111.769 27.3497C112.356 28.2346 113.261 28.677 114.486 28.677Z" fill="#11142D"/>
<path d="M134.857 33C131.974 33 129.78 32.1404 128.274 30.4213C126.794 28.677 126.054 26.2121 126.054 23.0267C126.054 19.8666 126.794 17.427 128.274 15.7079C129.78 13.9888 131.974 13.1292 134.857 13.1292C137.741 13.1292 139.923 13.9888 141.403 15.7079C142.908 17.427 143.661 19.8666 143.661 23.0267C143.661 26.2121 142.908 28.677 141.403 30.4213C139.923 32.1404 137.741 33 134.857 33ZM134.857 28.677C136.082 28.677 136.988 28.2346 137.575 27.3497C138.162 26.4649 138.455 25.0239 138.455 23.0267C138.455 21.0295 138.162 19.6011 137.575 18.7416C136.988 17.882 136.082 17.4522 134.857 17.4522C133.633 17.4522 132.727 17.882 132.14 18.7416C131.553 19.6011 131.26 21.0295 131.26 23.0267C131.26 25.0239 131.553 26.4649 132.14 27.3497C132.727 28.2346 133.633 28.677 134.857 28.677Z" fill="#11142D"/>
<path d="M147.421 6H152.549V21.0927L154.502 20.7514L158.291 13.5843H164.032L159.056 22.5716L164.3 32.5449H158.52L154.655 25.1503L152.549 25.4916V32.5449H147.421V6Z" fill="#11142D"/>
<path d="M174.591 33C171.707 33 169.513 32.1404 168.007 30.4213C166.527 28.677 165.787 26.2121 165.787 23.0267C165.787 19.8666 166.527 17.427 168.007 15.7079C169.513 13.9888 171.707 13.1292 174.591 13.1292C177.474 13.1292 179.656 13.9888 181.136 15.7079C182.641 17.427 183.394 19.8666 183.394 23.0267C183.394 26.2121 182.641 28.677 181.136 30.4213C179.656 32.1404 177.474 33 174.591 33ZM174.591 28.677C175.816 28.677 176.722 28.2346 177.308 27.3497C177.895 26.4649 178.189 25.0239 178.189 23.0267C178.189 21.0295 177.895 19.6011 177.308 18.7416C176.722 17.882 175.816 17.4522 174.591 17.4522C173.366 17.4522 172.46 17.882 171.873 18.7416C171.286 19.6011 170.993 21.0295 170.993 23.0267C170.993 25.0239 171.286 26.4649 171.873 27.3497C172.46 28.2346 173.366 28.677 174.591 28.677Z" fill="#11142D"/>
<path d="M194.656 33C191.67 33 189.514 32.2542 188.187 30.7626C186.86 29.2711 186.197 26.8567 186.197 23.5197C186.197 20.0309 186.886 17.427 188.264 15.7079C189.667 13.9888 191.836 13.1292 194.771 13.1292C197.476 13.1292 199.517 13.8497 200.895 15.2907C202.298 16.7065 203 18.8427 203 21.6994L202.617 25.2261H191.364C191.415 26.111 191.568 26.7935 191.824 27.2739C192.104 27.7289 192.538 28.0576 193.125 28.2598C193.737 28.4368 194.579 28.5253 195.651 28.5253C196.493 28.5253 197.501 28.5 198.675 28.4494C199.849 28.3989 200.703 28.3483 201.239 28.2978L202.311 28.184L202.388 31.9382C199.504 32.6461 196.927 33 194.656 33ZM197.948 21.3581C197.948 19.8413 197.705 18.7921 197.22 18.2107C196.761 17.6039 195.932 17.3006 194.732 17.3006C193.508 17.3006 192.64 17.6166 192.13 18.2486C191.619 18.8553 191.351 19.8919 191.326 21.3581H197.948Z" fill="#11142D"/>
<path d="M84.314 44.7197H86.8594C88.0062 44.7197 88.8483 44.9144 89.3857 45.3037C89.9232 45.693 90.1919 46.2812 90.1919 47.0684C90.1919 47.6058 90.0269 48.0544 89.6968 48.4141C89.3709 48.7695 88.8927 48.998 88.2622 49.0996V49.1377C89.0028 49.2477 89.5465 49.4826 89.8936 49.8423C90.2448 50.1978 90.4204 50.695 90.4204 51.334C90.4204 52.1888 90.1369 52.8468 89.5698 53.3081C89.0028 53.7694 88.1987 54 87.1577 54H84.314V44.7197ZM84.9614 48.8521H87.0054C87.8771 48.8521 88.5098 48.7082 88.9033 48.4204C89.3011 48.1284 89.5 47.6735 89.5 47.0557C89.5 46.4378 89.2757 45.9893 88.8271 45.71C88.3828 45.4307 87.7184 45.291 86.834 45.291H84.9614V48.8521ZM84.9614 49.4233V53.4287H87.145C88.8631 53.4287 89.7222 52.7305 89.7222 51.334C89.7222 50.0602 88.8166 49.4233 87.0054 49.4233H84.9614ZM98.0122 50.5405C98.0122 51.6662 97.7393 52.5464 97.1934 53.1812C96.6475 53.8117 95.8942 54.127 94.9336 54.127C94.3285 54.127 93.7952 53.981 93.334 53.689C92.8727 53.397 92.5194 52.978 92.2739 52.4321C92.0285 51.8862 91.9058 51.2557 91.9058 50.5405C91.9058 49.4149 92.1787 48.5389 92.7246 47.9126C93.2705 47.2821 94.0195 46.9668 94.9717 46.9668C95.9196 46.9668 96.6623 47.2863 97.1997 47.9253C97.7414 48.5601 98.0122 49.4318 98.0122 50.5405ZM92.5659 50.5405C92.5659 51.4884 92.7733 52.229 93.188 52.7622C93.6069 53.2912 94.1973 53.5557 94.959 53.5557C95.7207 53.5557 96.3089 53.2912 96.7236 52.7622C97.1426 52.229 97.3521 51.4884 97.3521 50.5405C97.3521 49.5884 97.1405 48.8499 96.7173 48.3252C96.2983 47.8005 95.708 47.5381 94.9463 47.5381C94.1846 47.5381 93.5964 47.8005 93.1816 48.3252C92.7712 48.8457 92.5659 49.5841 92.5659 50.5405ZM105.629 50.5405C105.629 51.6662 105.356 52.5464 104.811 53.1812C104.265 53.8117 103.511 54.127 102.551 54.127C101.946 54.127 101.412 53.981 100.951 53.689C100.49 53.397 100.137 52.978 99.8911 52.4321C99.6457 51.8862 99.5229 51.2557 99.5229 50.5405C99.5229 49.4149 99.7959 48.5389 100.342 47.9126C100.888 47.2821 101.637 46.9668 102.589 46.9668C103.537 46.9668 104.279 47.2863 104.817 47.9253C105.359 48.5601 105.629 49.4318 105.629 50.5405ZM100.183 50.5405C100.183 51.4884 100.39 52.229 100.805 52.7622C101.224 53.2912 101.814 53.5557 102.576 53.5557C103.338 53.5557 103.926 53.2912 104.341 52.7622C104.76 52.229 104.969 51.4884 104.969 50.5405C104.969 49.5884 104.758 48.8499 104.334 48.3252C103.916 47.8005 103.325 47.5381 102.563 47.5381C101.802 47.5381 101.214 47.8005 100.799 48.3252C100.388 48.8457 100.183 49.5841 100.183 50.5405ZM108.156 50.9722L111.679 47.1001H112.44L109.724 50.0454L112.675 54H111.92L109.298 50.5151L108.168 51.5435V54H107.54V44.123H108.168V49.0742L108.124 50.9722H108.156ZM122.495 51.6069C122.495 52.3813 122.209 52.995 121.638 53.4478C121.071 53.9006 120.316 54.127 119.372 54.127C118.238 54.127 117.368 54.0021 116.763 53.7524V53.105C117.432 53.3885 118.285 53.5303 119.321 53.5303C120.083 53.5303 120.686 53.3568 121.13 53.0098C121.579 52.6585 121.803 52.1994 121.803 51.6323C121.803 51.2811 121.729 50.9912 121.581 50.7627C121.433 50.5299 121.192 50.3184 120.857 50.1279C120.523 49.9375 120.032 49.7323 119.385 49.5122C118.437 49.1864 117.781 48.8351 117.417 48.4585C117.057 48.0776 116.877 47.5719 116.877 46.9414C116.877 46.2474 117.148 45.6825 117.69 45.2466C118.236 44.8065 118.936 44.5864 119.791 44.5864C120.663 44.5864 121.482 44.7515 122.248 45.0815L122.013 45.6401C121.243 45.3185 120.506 45.1577 119.804 45.1577C119.118 45.1577 118.572 45.3164 118.166 45.6338C117.76 45.9512 117.557 46.3828 117.557 46.9287C117.557 47.2715 117.618 47.5529 117.741 47.7729C117.868 47.993 118.073 48.1919 118.356 48.3696C118.64 48.5431 119.127 48.7526 119.816 48.998C120.54 49.2477 121.084 49.491 121.448 49.728C121.812 49.9608 122.076 50.2274 122.241 50.5278C122.41 50.8241 122.495 51.1838 122.495 51.6069ZM126.12 53.5684C126.517 53.5684 126.864 53.5345 127.161 53.4668V53.9746C126.856 54.0762 126.505 54.127 126.107 54.127C125.498 54.127 125.047 53.964 124.755 53.6382C124.467 53.3123 124.323 52.8003 124.323 52.1021V47.646H123.301V47.2778L124.323 46.9922L124.641 45.4307H124.964V47.1001H126.989V47.646H124.964V52.0132C124.964 52.5422 125.057 52.9336 125.244 53.1875C125.43 53.4414 125.722 53.5684 126.12 53.5684ZM134.359 50.5405C134.359 51.6662 134.086 52.5464 133.54 53.1812C132.994 53.8117 132.241 54.127 131.28 54.127C130.675 54.127 130.142 53.981 129.681 53.689C129.219 53.397 128.866 52.978 128.621 52.4321C128.375 51.8862 128.252 51.2557 128.252 50.5405C128.252 49.4149 128.525 48.5389 129.071 47.9126C129.617 47.2821 130.366 46.9668 131.318 46.9668C132.266 46.9668 133.009 47.2863 133.546 47.9253C134.088 48.5601 134.359 49.4318 134.359 50.5405ZM128.913 50.5405C128.913 51.4884 129.12 52.229 129.535 52.7622C129.954 53.2912 130.544 53.5557 131.306 53.5557C132.067 53.5557 132.656 53.2912 133.07 52.7622C133.489 52.229 133.699 51.4884 133.699 50.5405C133.699 49.5884 133.487 48.8499 133.064 48.3252C132.645 47.8005 132.055 47.5381 131.293 47.5381C130.531 47.5381 129.943 47.8005 129.528 48.3252C129.118 48.8457 128.913 49.5841 128.913 50.5405ZM138.986 46.9668C139.278 46.9668 139.591 46.9964 139.926 47.0557L139.805 47.6587C139.517 47.5868 139.219 47.5508 138.91 47.5508C138.322 47.5508 137.84 47.8005 137.463 48.2998C137.086 48.7992 136.898 49.4297 136.898 50.1914V54H136.27V47.1001H136.803L136.866 48.3442H136.911C137.194 47.8364 137.497 47.481 137.818 47.2778C138.14 47.0705 138.529 46.9668 138.986 46.9668ZM144.122 54.127C143.119 54.127 142.336 53.818 141.773 53.2002C141.214 52.5824 140.935 51.717 140.935 50.604C140.935 49.5037 141.206 48.6235 141.748 47.9634C142.289 47.299 143.019 46.9668 143.938 46.9668C144.75 46.9668 145.391 47.2503 145.861 47.8174C146.331 48.3844 146.565 49.1546 146.565 50.1279V50.6357H141.595C141.604 51.5837 141.824 52.3073 142.255 52.8066C142.691 53.306 143.313 53.5557 144.122 53.5557C144.515 53.5557 144.86 53.5282 145.156 53.4731C145.457 53.4181 145.835 53.2996 146.292 53.1177V53.689C145.903 53.8582 145.543 53.9725 145.213 54.0317C144.883 54.0952 144.519 54.127 144.122 54.127ZM143.938 47.5254C143.273 47.5254 142.74 47.7454 142.338 48.1855C141.936 48.6214 141.701 49.252 141.633 50.0771H145.899C145.899 49.2773 145.725 48.6532 145.378 48.2046C145.031 47.7518 144.551 47.5254 143.938 47.5254ZM159.4 54H158.867L156.83 46.8398C156.66 46.2516 156.533 45.7692 156.449 45.3926C156.381 45.7607 156.284 46.1839 156.157 46.6621C156.034 47.1403 155.353 49.5863 154.113 54H153.567L151.015 44.7197H151.694L153.319 50.6992C153.383 50.9404 153.442 51.1647 153.497 51.3721C153.552 51.5752 153.601 51.7677 153.643 51.9497C153.69 52.1274 153.73 52.3009 153.764 52.4702C153.802 52.6353 153.836 52.8024 153.865 52.9717C153.967 52.3962 154.183 51.5223 154.513 50.3501L156.1 44.7197H156.817L158.677 51.1816C158.893 51.9264 159.047 52.5273 159.14 52.9844C159.195 52.6797 159.265 52.356 159.35 52.0132C159.438 51.6704 160.092 49.2393 161.311 44.7197H161.965L159.4 54ZM166.237 54.127C165.234 54.127 164.451 53.818 163.888 53.2002C163.33 52.5824 163.05 51.717 163.05 50.604C163.05 49.5037 163.321 48.6235 163.863 47.9634C164.404 47.299 165.134 46.9668 166.053 46.9668C166.865 46.9668 167.506 47.2503 167.976 47.8174C168.446 48.3844 168.681 49.1546 168.681 50.1279V50.6357H163.71C163.719 51.5837 163.939 52.3073 164.371 52.8066C164.806 53.306 165.429 53.5557 166.237 53.5557C166.63 53.5557 166.975 53.5282 167.271 53.4731C167.572 53.4181 167.951 53.2996 168.408 53.1177V53.689C168.018 53.8582 167.659 53.9725 167.329 54.0317C166.999 54.0952 166.635 54.127 166.237 54.127ZM166.053 47.5254C165.388 47.5254 164.855 47.7454 164.453 48.1855C164.051 48.6214 163.816 49.252 163.749 50.0771H168.014C168.014 49.2773 167.841 48.6532 167.494 48.2046C167.147 47.7518 166.666 47.5254 166.053 47.5254ZM173.499 46.9668C174.463 46.9668 175.189 47.2715 175.676 47.8809C176.167 48.486 176.412 49.3726 176.412 50.5405C176.412 51.6873 176.154 52.5718 175.638 53.1938C175.126 53.8159 174.404 54.127 173.473 54.127C172.982 54.127 172.54 54.0254 172.146 53.8223C171.753 53.6191 171.442 53.3314 171.213 52.959H171.156L170.979 54H170.585V44.123H171.213V46.605C171.213 46.9774 171.205 47.3201 171.188 47.6333L171.169 48.1729H171.213C171.476 47.7581 171.791 47.4535 172.159 47.2588C172.532 47.0641 172.978 46.9668 173.499 46.9668ZM173.486 47.5381C172.673 47.5381 172.091 47.7708 171.74 48.2363C171.389 48.7018 171.213 49.4699 171.213 50.5405V50.6484C171.213 51.6895 171.395 52.4364 171.759 52.8892C172.127 53.342 172.699 53.5684 173.473 53.5684C174.226 53.5684 174.793 53.306 175.174 52.7812C175.555 52.2523 175.746 51.5011 175.746 50.5278C175.746 48.5347 174.992 47.5381 173.486 47.5381ZM182.607 52.2036C182.607 52.8215 182.373 53.2975 181.903 53.6318C181.433 53.9619 180.767 54.127 179.903 54.127C178.981 54.127 178.249 53.9852 177.707 53.7017V53.0225C178.401 53.3695 179.133 53.543 179.903 53.543C180.585 53.543 181.101 53.4308 181.452 53.2065C181.808 52.978 181.985 52.6755 181.985 52.2988C181.985 51.9518 181.844 51.6598 181.56 51.4229C181.281 51.1859 180.819 50.9531 180.176 50.7246C179.486 50.4749 179.002 50.2612 178.723 50.0835C178.443 49.9015 178.232 49.6984 178.088 49.4741C177.948 49.2456 177.878 48.9684 177.878 48.6426C177.878 48.1263 178.094 47.7179 178.526 47.4175C178.962 47.117 179.569 46.9668 180.348 46.9668C181.092 46.9668 181.799 47.1064 182.468 47.3857L182.233 47.957C181.556 47.6777 180.927 47.5381 180.348 47.5381C179.785 47.5381 179.338 47.6312 179.008 47.8174C178.678 48.0036 178.513 48.2617 178.513 48.5918C178.513 48.9515 178.64 49.2393 178.894 49.4551C179.152 49.6709 179.654 49.9121 180.398 50.1787C181.021 50.403 181.473 50.6061 181.757 50.7881C182.04 50.9658 182.252 51.1689 182.392 51.3975C182.535 51.626 182.607 51.8947 182.607 52.2036ZM185.013 54H184.385V47.1001H185.013V54ZM184.296 45.1831C184.296 44.7769 184.429 44.5737 184.696 44.5737C184.827 44.5737 184.929 44.6266 185 44.7324C185.077 44.8382 185.115 44.9884 185.115 45.1831C185.115 45.3735 185.077 45.5238 185 45.6338C184.929 45.7438 184.827 45.7988 184.696 45.7988C184.429 45.7988 184.296 45.5936 184.296 45.1831ZM189.152 53.5684C189.55 53.5684 189.897 53.5345 190.193 53.4668V53.9746C189.888 54.0762 189.537 54.127 189.139 54.127C188.53 54.127 188.079 53.964 187.787 53.6382C187.499 53.3123 187.355 52.8003 187.355 52.1021V47.646H186.333V47.2778L187.355 46.9922L187.673 45.4307H187.997V47.1001H190.021V47.646H187.997V52.0132C187.997 52.5422 188.09 52.9336 188.276 53.1875C188.462 53.4414 188.754 53.5684 189.152 53.5684ZM194.471 54.127C193.468 54.127 192.685 53.818 192.123 53.2002C191.564 52.5824 191.285 51.717 191.285 50.604C191.285 49.5037 191.556 48.6235 192.097 47.9634C192.639 47.299 193.369 46.9668 194.287 46.9668C195.1 46.9668 195.741 47.2503 196.21 47.8174C196.68 48.3844 196.915 49.1546 196.915 50.1279V50.6357H191.945C191.953 51.5837 192.173 52.3073 192.605 52.8066C193.041 53.306 193.663 53.5557 194.471 53.5557C194.865 53.5557 195.21 53.5282 195.506 53.4731C195.806 53.4181 196.185 53.2996 196.642 53.1177V53.689C196.253 53.8582 195.893 53.9725 195.563 54.0317C195.233 54.0952 194.869 54.127 194.471 54.127ZM194.287 47.5254C193.623 47.5254 193.09 47.7454 192.688 48.1855C192.285 48.6214 192.051 49.252 191.983 50.0771H196.249C196.249 49.2773 196.075 48.6532 195.728 48.2046C195.381 47.7518 194.901 47.5254 194.287 47.5254Z" fill="#11142D"/>
<rect width="64" height="64" rx="14" fill="#6C5DD3"/>
<path d="M51.3203 45.4414H47.8658C48.0446 44.8673 48.0725 44.2384 47.9134 43.6128L46.6477 38.7217C46.4158 37.8254 45.5018 37.2854 44.6045 37.5157L39.096 38.9274L35.3088 24.0346L39.2157 23.0409L41.5575 32.25C41.7861 33.1492 42.7008 33.6928 43.5993 33.4638C44.4986 33.2351 45.0418 32.3211 44.8132 31.4219L40.8364 15.7828C40.6153 14.9134 40.0684 14.1818 39.2971 13.7232C38.5258 13.2649 37.6227 13.1337 36.7523 13.3551L33.1797 14.2635V13.3594C33.1797 11.5071 31.6726 10 29.8203 10H25.7891C23.9368 10 22.4297 11.5071 22.4297 13.3594V16.7188H18.3984C16.5462 16.7188 15.0391 18.2259 15.0391 20.0781V45.4414H11.6797C10.7519 45.4414 10 46.1933 10 47.1211C10 48.0489 10.7519 48.8008 11.6797 48.8008H13.3594V51.3203C13.3594 52.2481 14.1113 53 15.0391 53C15.9668 53 16.7188 52.2481 16.7188 51.3203V48.8008H46.2812V51.3203C46.2812 52.2481 47.0332 53 47.9609 53C48.8887 53 49.6406 52.2481 49.6406 51.3203V48.8008H51.3203C52.2481 48.8008 53 48.0489 53 47.1211C53 46.1933 52.2481 45.4414 51.3203 45.4414ZM33.1797 29.2928L37.2861 45.4414H33.1797V29.2928ZM43.8152 41.1858L44.6593 44.4474L40.7524 45.4411L39.924 42.1827L43.8152 41.1858ZM37.5803 16.6108L38.3877 19.7852L34.4808 20.7789L33.6738 17.6042L37.5803 16.6108ZM22.4297 20.0781V23.3535H18.3984V20.0781H22.4297ZM18.3984 26.7129H22.4297V45.4414H18.3984V26.7129ZM25.7891 45.4414V13.3594H29.8203V45.4414H25.7891Z" fill="white"/>
</svg>
