<svg width="203" height="64" viewBox="0 0 203 64" fill="none" xmlns="http://www.w3.org/2000/svg">
<path d="M84 6.75843H94.2196C97.0009 6.75843 99.0423 7.31461 100.344 8.42697C101.671 9.51404 102.334 11.2837 102.334 13.736C102.334 15.0506 102.117 16.1376 101.683 16.9972C101.25 17.8567 100.51 18.6152 99.4633 19.2725C100.612 19.7275 101.454 20.4228 101.99 21.3581C102.551 22.2935 102.832 23.5197 102.832 25.0365C102.832 27.5646 102.104 29.448 100.65 30.6868C99.1954 31.9256 97.103 32.5449 94.3727 32.5449H84V6.75843ZM93.9899 17.3764C95.9803 17.3764 96.9754 16.3525 96.9754 14.3048C96.9754 12.257 95.9675 11.2331 93.9517 11.2331H89.282V17.3764H93.9899ZM94.1048 28.0702C95.253 28.0702 96.0951 27.8427 96.6309 27.3876C97.1923 26.9073 97.473 26.111 97.473 24.9986C97.473 23.8862 97.2051 23.0772 96.6692 22.5716C96.1334 22.0407 95.2785 21.7753 94.1048 21.7753H89.282V28.0702H94.1048Z" fill="white"/>
<path d="M114.486 33C111.603 33 109.408 32.1404 107.903 30.4213C106.423 28.677 105.683 26.2121 105.683 23.0267C105.683 19.8666 106.423 17.427 107.903 15.7079C109.408 13.9888 111.603 13.1292 114.486 13.1292C117.37 13.1292 119.551 13.9888 121.031 15.7079C122.537 17.427 123.29 19.8666 123.29 23.0267C123.29 26.2121 122.537 28.677 121.031 30.4213C119.551 32.1404 117.37 33 114.486 33ZM114.486 28.677C115.711 28.677 116.617 28.2346 117.204 27.3497C117.791 26.4649 118.084 25.0239 118.084 23.0267C118.084 21.0295 117.791 19.6011 117.204 18.7416C116.617 17.882 115.711 17.4522 114.486 17.4522C113.261 17.4522 112.356 17.882 111.769 18.7416C111.182 19.6011 110.888 21.0295 110.888 23.0267C110.888 25.0239 111.182 26.4649 111.769 27.3497C112.356 28.2346 113.261 28.677 114.486 28.677Z" fill="white"/>
<path d="M134.857 33C131.974 33 129.78 32.1404 128.274 30.4213C126.794 28.677 126.054 26.2121 126.054 23.0267C126.054 19.8666 126.794 17.427 128.274 15.7079C129.78 13.9888 131.974 13.1292 134.857 13.1292C137.741 13.1292 139.923 13.9888 141.403 15.7079C142.908 17.427 143.661 19.8666 143.661 23.0267C143.661 26.2121 142.908 28.677 141.403 30.4213C139.923 32.1404 137.741 33 134.857 33ZM134.857 28.677C136.082 28.677 136.988 28.2346 137.575 27.3497C138.162 26.4649 138.455 25.0239 138.455 23.0267C138.455 21.0295 138.162 19.6011 137.575 18.7416C136.988 17.882 136.082 17.4522 134.857 17.4522C133.633 17.4522 132.727 17.882 132.14 18.7416C131.553 19.6011 131.26 21.0295 131.26 23.0267C131.26 25.0239 131.553 26.4649 132.14 27.3497C132.727 28.2346 133.633 28.677 134.857 28.677Z" fill="white"/>
<path d="M147.421 6H152.549V21.0927L154.502 20.7514L158.291 13.5843H164.032L159.056 22.5716L164.3 32.5449H158.52L154.655 25.1503L152.549 25.4916V32.5449H147.421V6Z" fill="white"/>
<path d="M174.591 33C171.707 33 169.513 32.1404 168.007 30.4213C166.527 28.677 165.787 26.2121 165.787 23.0267C165.787 19.8666 166.527 17.427 168.007 15.7079C169.513 13.9888 171.707 13.1292 174.591 13.1292C177.474 13.1292 179.656 13.9888 181.136 15.7079C182.641 17.427 183.394 19.8666 183.394 23.0267C183.394 26.2121 182.641 28.677 181.136 30.4213C179.656 32.1404 177.474 33 174.591 33ZM174.591 28.677C175.816 28.677 176.722 28.2346 177.308 27.3497C177.895 26.4649 178.189 25.0239 178.189 23.0267C178.189 21.0295 177.895 19.6011 177.308 18.7416C176.722 17.882 175.816 17.4522 174.591 17.4522C173.366 17.4522 172.46 17.882 171.873 18.7416C171.286 19.6011 170.993 21.0295 170.993 23.0267C170.993 25.0239 171.286 26.4649 171.873 27.3497C172.46 28.2346 173.366 28.677 174.591 28.677Z" fill="white"/>
<path d="M194.656 33C191.67 33 189.514 32.2542 188.187 30.7626C186.86 29.2711 186.197 26.8567 186.197 23.5197C186.197 20.0309 186.886 17.427 188.264 15.7079C189.667 13.9888 191.836 13.1292 194.771 13.1292C197.476 13.1292 199.517 13.8497 200.895 15.2907C202.298 16.7065 203 18.8427 203 21.6994L202.617 25.2261H191.364C191.415 26.111 191.568 26.7935 191.824 27.2739C192.104 27.7289 192.538 28.0576 193.125 28.2598C193.737 28.4368 194.579 28.5253 195.651 28.5253C196.493 28.5253 197.501 28.5 198.675 28.4494C199.849 28.3989 200.703 28.3483 201.239 28.2978L202.311 28.184L202.388 31.9382C199.504 32.6461 196.927 33 194.656 33ZM197.948 21.3581C197.948 19.8413 197.705 18.7921 197.22 18.2107C196.761 17.6039 195.932 17.3006 194.732 17.3006C193.508 17.3006 192.64 17.6166 192.13 18.2486C191.619 18.8553 191.351 19.8919 191.326 21.3581H197.948Z" fill="white"/>
<path d="M84.3076 44.7197H86.853C87.9998 44.7197 88.8377 44.8996 89.3667 45.2593C89.8999 45.619 90.1665 46.1924 90.1665 46.9795C90.1665 47.335 90.0967 47.6587 89.957 47.9507C89.8216 48.2427 89.6185 48.4881 89.3477 48.687C89.0811 48.8817 88.751 49.015 88.3574 49.0869V49.1313C88.8271 49.2033 89.2144 49.3345 89.519 49.5249C89.828 49.7111 90.0565 49.9587 90.2046 50.2676C90.3569 50.5723 90.4331 50.9362 90.4331 51.3594C90.4331 51.9688 90.2935 52.4681 90.0142 52.8574C89.7391 53.2467 89.3561 53.5345 88.8652 53.7207C88.3743 53.9069 87.8073 54 87.1641 54H84.3076V44.7197ZM84.9614 48.8457H87.0181C87.8898 48.8457 88.5203 48.6934 88.9097 48.3887C89.299 48.084 89.4937 47.6333 89.4937 47.0366C89.4937 46.4188 89.2842 45.9744 88.8652 45.7036C88.4463 45.4328 87.7756 45.2974 86.853 45.2974H84.9614V48.8457ZM84.9614 49.417V53.4224H87.145C88.0041 53.4224 88.6515 53.2489 89.0874 52.9019C89.5233 52.5506 89.7412 52.028 89.7412 51.334C89.7412 50.877 89.6396 50.5088 89.4365 50.2295C89.2334 49.946 88.9287 49.7407 88.5225 49.6138C88.1204 49.4826 87.619 49.417 87.0181 49.417H84.9614ZM98.0186 50.5405C98.0186 51.0737 97.953 51.5604 97.8218 52.0005C97.6906 52.4364 97.4959 52.813 97.2378 53.1304C96.9797 53.4478 96.658 53.6932 96.2729 53.8667C95.8921 54.0402 95.4478 54.127 94.9399 54.127C94.4575 54.127 94.028 54.0423 93.6514 53.873C93.2747 53.6995 92.9552 53.4541 92.6929 53.1367C92.4347 52.8193 92.238 52.4427 92.1025 52.0068C91.9671 51.5667 91.8994 51.078 91.8994 50.5405C91.8994 49.8 92.0221 49.1631 92.2676 48.6299C92.5173 48.0924 92.8727 47.682 93.334 47.3984C93.7995 47.1107 94.356 46.9668 95.0034 46.9668C95.672 46.9668 96.2285 47.1191 96.6729 47.4238C97.1214 47.7243 97.4578 48.1432 97.6821 48.6807C97.9064 49.2181 98.0186 49.8381 98.0186 50.5405ZM92.5596 50.5405C92.5596 51.1457 92.6463 51.6746 92.8198 52.1274C92.9933 52.5802 93.2557 52.9336 93.6069 53.1875C93.9624 53.4414 94.411 53.5684 94.9526 53.5684C95.507 53.5684 95.9619 53.4414 96.3174 53.1875C96.6729 52.9336 96.9352 52.5781 97.1045 52.1211C97.2738 51.6641 97.3584 51.1372 97.3584 50.5405C97.3584 49.9608 97.278 49.4445 97.1172 48.9917C96.9564 48.5389 96.7025 48.1834 96.3555 47.9253C96.0085 47.6629 95.5557 47.5317 94.9971 47.5317C94.1973 47.5317 93.59 47.7983 93.1753 48.3315C92.7648 48.8647 92.5596 49.6011 92.5596 50.5405ZM105.648 50.5405C105.648 51.0737 105.583 51.5604 105.452 52.0005C105.32 52.4364 105.126 52.813 104.868 53.1304C104.61 53.4478 104.288 53.6932 103.903 53.8667C103.522 54.0402 103.078 54.127 102.57 54.127C102.087 54.127 101.658 54.0423 101.281 53.873C100.905 53.6995 100.585 53.4541 100.323 53.1367C100.065 52.8193 99.8678 52.4427 99.7324 52.0068C99.597 51.5667 99.5293 51.078 99.5293 50.5405C99.5293 49.8 99.652 49.1631 99.8975 48.6299C100.147 48.0924 100.503 47.682 100.964 47.3984C101.429 47.1107 101.986 46.9668 102.633 46.9668C103.302 46.9668 103.858 47.1191 104.303 47.4238C104.751 47.7243 105.088 48.1432 105.312 48.6807C105.536 49.2181 105.648 49.8381 105.648 50.5405ZM100.189 50.5405C100.189 51.1457 100.276 51.6746 100.45 52.1274C100.623 52.5802 100.886 52.9336 101.237 53.1875C101.592 53.4414 102.041 53.5684 102.583 53.5684C103.137 53.5684 103.592 53.4414 103.947 53.1875C104.303 52.9336 104.565 52.5781 104.734 52.1211C104.904 51.6641 104.988 51.1372 104.988 50.5405C104.988 49.9608 104.908 49.4445 104.747 48.9917C104.586 48.5389 104.332 48.1834 103.985 47.9253C103.638 47.6629 103.186 47.5317 102.627 47.5317C101.827 47.5317 101.22 47.7983 100.805 48.3315C100.395 48.8647 100.189 49.6011 100.189 50.5405ZM108.194 44.123V49.106C108.194 49.4149 108.19 49.7301 108.181 50.0518C108.177 50.3691 108.171 50.6865 108.162 51.0039H108.175C108.298 50.86 108.424 50.7098 108.556 50.5532C108.691 50.3924 108.824 50.238 108.956 50.0898L111.685 47.1001H112.459L109.736 50.0581L112.701 54H111.933L109.298 50.4834L108.194 51.645V54H107.553V44.123H108.194ZM122.501 51.6069C122.501 52.1613 122.362 52.6268 122.083 53.0034C121.803 53.3758 121.424 53.6572 120.946 53.8477C120.468 54.0339 119.926 54.127 119.321 54.127C118.945 54.127 118.602 54.1079 118.293 54.0698C117.988 54.036 117.711 53.9894 117.461 53.9302C117.216 53.8709 116.992 53.8032 116.789 53.7271V53.0732C117.119 53.2002 117.5 53.3123 117.931 53.4097C118.367 53.5028 118.841 53.5493 119.353 53.5493C119.835 53.5493 120.263 53.4795 120.635 53.3398C121.012 53.2002 121.308 52.9886 121.524 52.7051C121.74 52.4215 121.848 52.064 121.848 51.6323C121.848 51.2515 121.757 50.9404 121.575 50.6992C121.397 50.4538 121.128 50.2443 120.769 50.0708C120.409 49.8931 119.956 49.7132 119.41 49.5312C119.029 49.4001 118.682 49.2625 118.369 49.1187C118.06 48.9705 117.796 48.8013 117.576 48.6108C117.356 48.4162 117.186 48.1834 117.068 47.9126C116.954 47.6375 116.896 47.3138 116.896 46.9414C116.896 46.4294 117.026 45.9998 117.284 45.6528C117.546 45.3016 117.899 45.0371 118.344 44.8594C118.792 44.6774 119.296 44.5864 119.854 44.5864C120.299 44.5864 120.72 44.6287 121.118 44.7134C121.52 44.7938 121.907 44.9165 122.279 45.0815L122.051 45.6465C121.678 45.4857 121.306 45.3672 120.934 45.291C120.561 45.2148 120.193 45.1768 119.829 45.1768C119.393 45.1768 119.004 45.2424 118.661 45.3735C118.323 45.5005 118.054 45.693 117.855 45.9512C117.656 46.2093 117.557 46.5352 117.557 46.9287C117.557 47.335 117.648 47.6629 117.83 47.9126C118.016 48.1623 118.278 48.3696 118.617 48.5347C118.959 48.6997 119.364 48.8605 119.829 49.0171C120.379 49.2033 120.853 49.4001 121.251 49.6074C121.649 49.8105 121.956 50.0687 122.171 50.3818C122.391 50.695 122.501 51.1034 122.501 51.6069ZM126.189 53.5747C126.388 53.5747 126.572 53.5599 126.742 53.5303C126.915 53.5007 127.068 53.4626 127.199 53.416V53.9492C127.063 53.9958 126.905 54.036 126.723 54.0698C126.541 54.1079 126.34 54.127 126.12 54.127C125.73 54.127 125.407 54.055 125.148 53.9111C124.89 53.763 124.696 53.5409 124.564 53.2446C124.433 52.9442 124.368 52.5633 124.368 52.1021V47.6333H123.339V47.2524L124.361 47.0557L124.583 45.4307H125.009V47.1001H127.161V47.6333H125.009V52.064C125.009 52.5591 125.1 52.9357 125.282 53.1938C125.468 53.4478 125.771 53.5747 126.189 53.5747ZM134.403 50.5405C134.403 51.0737 134.338 51.5604 134.207 52.0005C134.075 52.4364 133.881 52.813 133.623 53.1304C133.364 53.4478 133.043 53.6932 132.658 53.8667C132.277 54.0402 131.833 54.127 131.325 54.127C130.842 54.127 130.413 54.0423 130.036 53.873C129.66 53.6995 129.34 53.4541 129.078 53.1367C128.819 52.8193 128.623 52.4427 128.487 52.0068C128.352 51.5667 128.284 51.078 128.284 50.5405C128.284 49.8 128.407 49.1631 128.652 48.6299C128.902 48.0924 129.257 47.682 129.719 47.3984C130.184 47.1107 130.741 46.9668 131.388 46.9668C132.057 46.9668 132.613 47.1191 133.058 47.4238C133.506 47.7243 133.843 48.1432 134.067 48.6807C134.291 49.2181 134.403 49.8381 134.403 50.5405ZM128.944 50.5405C128.944 51.1457 129.031 51.6746 129.205 52.1274C129.378 52.5802 129.64 52.9336 129.992 53.1875C130.347 53.4414 130.796 53.5684 131.337 53.5684C131.892 53.5684 132.347 53.4414 132.702 53.1875C133.058 52.9336 133.32 52.5781 133.489 52.1211C133.659 51.6641 133.743 51.1372 133.743 50.5405C133.743 49.9608 133.663 49.4445 133.502 48.9917C133.341 48.5389 133.087 48.1834 132.74 47.9253C132.393 47.6629 131.94 47.5317 131.382 47.5317C130.582 47.5317 129.975 47.7983 129.56 48.3315C129.15 48.8647 128.944 49.6011 128.944 50.5405ZM139.056 46.9795C139.238 46.9795 139.41 46.9901 139.57 47.0112C139.731 47.0324 139.881 47.062 140.021 47.1001L139.919 47.6904C139.78 47.6523 139.638 47.6248 139.494 47.6079C139.35 47.5868 139.196 47.5762 139.031 47.5762C138.705 47.5762 138.413 47.6375 138.155 47.7603C137.901 47.883 137.685 48.0586 137.507 48.2871C137.33 48.5156 137.194 48.7907 137.101 49.1123C137.008 49.4339 136.961 49.7936 136.961 50.1914V54H136.314V47.1001H136.866L136.93 48.4014H136.968C137.074 48.1348 137.222 47.8957 137.412 47.6841C137.607 47.4683 137.842 47.2969 138.117 47.1699C138.392 47.043 138.705 46.9795 139.056 46.9795ZM143.988 46.9668C144.576 46.9668 145.065 47.1043 145.455 47.3794C145.848 47.6545 146.14 48.0311 146.331 48.5093C146.525 48.9875 146.623 49.5355 146.623 50.1533V50.6167H141.64C141.64 51.5646 141.858 52.2925 142.293 52.8003C142.734 53.3081 143.362 53.562 144.179 53.562C144.606 53.562 144.976 53.5282 145.29 53.4604C145.607 53.3885 145.958 53.2679 146.343 53.0986V53.689C146.005 53.8413 145.666 53.9513 145.328 54.019C144.989 54.091 144.6 54.127 144.16 54.127C143.461 54.127 142.875 53.9831 142.401 53.6953C141.932 53.4033 141.576 52.9928 141.335 52.4639C141.098 51.9349 140.979 51.3171 140.979 50.6104C140.979 49.9206 141.094 49.3006 141.322 48.7505C141.555 48.2004 141.894 47.7666 142.338 47.4492C142.786 47.1276 143.337 46.9668 143.988 46.9668ZM143.982 47.519C143.322 47.519 142.786 47.7391 142.376 48.1792C141.97 48.6151 141.731 49.2456 141.659 50.0708H145.956C145.956 49.5672 145.884 49.1229 145.74 48.7378C145.596 48.3527 145.378 48.0544 145.086 47.8428C144.799 47.627 144.431 47.519 143.982 47.519ZM162.041 44.7197L159.508 54H158.874L156.887 46.9922C156.84 46.8441 156.798 46.7044 156.76 46.5732C156.726 46.4378 156.692 46.3109 156.658 46.1924C156.629 46.0697 156.599 45.9554 156.569 45.8496C156.544 45.7396 156.523 45.6401 156.506 45.5513C156.489 45.6401 156.47 45.7354 156.449 45.8369C156.432 45.9342 156.411 46.0358 156.385 46.1416C156.36 46.2474 156.332 46.3574 156.303 46.4717C156.273 46.5859 156.241 46.7044 156.208 46.8271L154.227 54H153.586L151.085 44.7197H151.758L153.503 51.2642C153.55 51.4377 153.592 51.6027 153.63 51.7593C153.673 51.9159 153.711 52.0682 153.745 52.2163C153.778 52.3602 153.81 52.502 153.84 52.6416C153.874 52.777 153.903 52.9146 153.929 53.0542C153.958 52.9146 153.988 52.7728 154.018 52.6289C154.047 52.485 154.079 52.339 154.113 52.1909C154.151 52.0428 154.189 51.8905 154.227 51.7339C154.269 51.5731 154.316 51.4059 154.367 51.2324L156.188 44.7197H156.842L158.734 51.2705C158.785 51.4525 158.831 51.6239 158.874 51.7847C158.916 51.9455 158.954 52.0999 158.988 52.248C159.022 52.3919 159.053 52.5337 159.083 52.6733C159.113 52.8088 159.142 52.9463 159.172 53.0859C159.206 52.8955 159.24 52.7093 159.273 52.5273C159.312 52.3411 159.356 52.1465 159.407 51.9434C159.458 51.7402 159.515 51.5181 159.578 51.2769L161.362 44.7197H162.041ZM166.116 46.9668C166.704 46.9668 167.193 47.1043 167.583 47.3794C167.976 47.6545 168.268 48.0311 168.458 48.5093C168.653 48.9875 168.75 49.5355 168.75 50.1533V50.6167H163.768C163.768 51.5646 163.986 52.2925 164.421 52.8003C164.861 53.3081 165.49 53.562 166.307 53.562C166.734 53.562 167.104 53.5282 167.417 53.4604C167.735 53.3885 168.086 53.2679 168.471 53.0986V53.689C168.133 53.8413 167.794 53.9513 167.456 54.019C167.117 54.091 166.728 54.127 166.288 54.127C165.589 54.127 165.003 53.9831 164.529 53.6953C164.06 53.4033 163.704 52.9928 163.463 52.4639C163.226 51.9349 163.107 51.3171 163.107 50.6104C163.107 49.9206 163.222 49.3006 163.45 48.7505C163.683 48.2004 164.021 47.7666 164.466 47.4492C164.914 47.1276 165.465 46.9668 166.116 46.9668ZM166.11 47.519C165.45 47.519 164.914 47.7391 164.504 48.1792C164.098 48.6151 163.859 49.2456 163.787 50.0708H168.084C168.084 49.5672 168.012 49.1229 167.868 48.7378C167.724 48.3527 167.506 48.0544 167.214 47.8428C166.927 47.627 166.558 47.519 166.11 47.519ZM171.283 44.123V46.9287C171.283 47.1699 171.279 47.4344 171.271 47.7222C171.262 48.0099 171.254 48.249 171.245 48.4395H171.283C171.448 48.012 171.736 47.6587 172.146 47.3794C172.557 47.1001 173.069 46.9604 173.683 46.9604C174.58 46.9604 175.272 47.263 175.758 47.8682C176.249 48.4733 176.495 49.3599 176.495 50.5278C176.495 51.243 176.385 51.8714 176.165 52.4131C175.944 52.9505 175.617 53.3716 175.181 53.6763C174.749 53.9767 174.207 54.127 173.556 54.127C172.967 54.127 172.487 54.0042 172.115 53.7588C171.742 53.5091 171.472 53.1981 171.302 52.8257H171.251L171.131 54H170.642V44.123H171.283ZM173.613 47.519C173.067 47.519 172.623 47.6375 172.28 47.8745C171.937 48.1073 171.685 48.4479 171.524 48.8965C171.364 49.3451 171.283 49.8931 171.283 50.5405V50.6421C171.283 51.5942 171.457 52.32 171.804 52.8193C172.151 53.3187 172.714 53.5684 173.492 53.5684C174.262 53.5684 174.844 53.306 175.238 52.7812C175.636 52.2523 175.834 51.5011 175.834 50.5278C175.834 49.5334 175.65 48.7843 175.282 48.2808C174.914 47.7729 174.358 47.519 173.613 47.519ZM182.709 52.1909C182.709 52.6014 182.605 52.9526 182.398 53.2446C182.195 53.5324 181.896 53.7524 181.503 53.9048C181.109 54.0529 180.625 54.127 180.049 54.127C179.571 54.127 179.144 54.0846 178.767 54C178.39 53.9154 178.075 53.8117 177.821 53.689V53.0542C178.139 53.2108 178.49 53.3377 178.875 53.4351C179.26 53.5324 179.656 53.5811 180.062 53.5811C180.773 53.5811 181.285 53.4604 181.598 53.2192C181.911 52.978 182.068 52.6479 182.068 52.229C182.068 51.9539 181.99 51.7275 181.833 51.5498C181.681 51.3678 181.461 51.2113 181.173 51.0801C180.885 50.9489 180.538 50.8156 180.132 50.6802C179.709 50.5363 179.332 50.3945 179.002 50.2549C178.676 50.111 178.42 49.9227 178.234 49.6899C178.048 49.453 177.955 49.1313 177.955 48.7251C177.955 48.1707 178.177 47.7391 178.621 47.4302C179.065 47.1213 179.662 46.9668 180.411 46.9668C180.826 46.9668 181.211 47.007 181.566 47.0874C181.926 47.1636 182.252 47.263 182.544 47.3857L182.315 47.9316C182.053 47.8089 181.75 47.7095 181.408 47.6333C181.065 47.5571 180.722 47.519 180.379 47.519C179.817 47.519 179.376 47.6185 179.059 47.8174C178.742 48.0163 178.583 48.3083 178.583 48.6934C178.583 48.9896 178.659 49.2223 178.812 49.3916C178.964 49.5566 179.182 49.6963 179.465 49.8105C179.749 49.9206 180.085 50.0433 180.475 50.1787C180.877 50.3184 181.247 50.4644 181.585 50.6167C181.928 50.769 182.201 50.9658 182.404 51.207C182.607 51.4482 182.709 51.7762 182.709 52.1909ZM185.089 47.1001V54H184.448V47.1001H185.089ZM184.778 44.5483C184.939 44.5483 185.058 44.597 185.134 44.6943C185.21 44.7874 185.248 44.9144 185.248 45.0752C185.248 45.236 185.21 45.363 185.134 45.4561C185.058 45.5492 184.939 45.5957 184.778 45.5957C184.626 45.5957 184.512 45.5492 184.436 45.4561C184.359 45.363 184.321 45.236 184.321 45.0752C184.321 44.9144 184.359 44.7874 184.436 44.6943C184.512 44.597 184.626 44.5483 184.778 44.5483ZM189.26 53.5747C189.459 53.5747 189.643 53.5599 189.812 53.5303C189.986 53.5007 190.138 53.4626 190.269 53.416V53.9492C190.134 53.9958 189.975 54.036 189.793 54.0698C189.611 54.1079 189.41 54.127 189.19 54.127C188.801 54.127 188.477 54.055 188.219 53.9111C187.961 53.763 187.766 53.5409 187.635 53.2446C187.504 52.9442 187.438 52.5633 187.438 52.1021V47.6333H186.41V47.2524L187.432 47.0557L187.654 45.4307H188.079V47.1001H190.231V47.6333H188.079V52.064C188.079 52.5591 188.17 52.9357 188.352 53.1938C188.538 53.4478 188.841 53.5747 189.26 53.5747ZM194.363 46.9668C194.951 46.9668 195.44 47.1043 195.83 47.3794C196.223 47.6545 196.515 48.0311 196.706 48.5093C196.9 48.9875 196.998 49.5355 196.998 50.1533V50.6167H192.015C192.015 51.5646 192.233 52.2925 192.668 52.8003C193.109 53.3081 193.737 53.562 194.554 53.562C194.981 53.562 195.351 53.5282 195.665 53.4604C195.982 53.3885 196.333 53.2679 196.718 53.0986V53.689C196.38 53.8413 196.041 53.9513 195.703 54.019C195.364 54.091 194.975 54.127 194.535 54.127C193.836 54.127 193.25 53.9831 192.776 53.6953C192.307 53.4033 191.951 52.9928 191.71 52.4639C191.473 51.9349 191.354 51.3171 191.354 50.6104C191.354 49.9206 191.469 49.3006 191.697 48.7505C191.93 48.2004 192.269 47.7666 192.713 47.4492C193.161 47.1276 193.712 46.9668 194.363 46.9668ZM194.357 47.519C193.697 47.519 193.161 47.7391 192.751 48.1792C192.345 48.6151 192.106 49.2456 192.034 50.0708H196.331C196.331 49.5672 196.259 49.1229 196.115 48.7378C195.971 48.3527 195.753 48.0544 195.461 47.8428C195.174 47.627 194.806 47.519 194.357 47.519Z" fill="#F0F0F0"/>
<rect width="64" height="64" rx="14" fill="#6C5DD3"/>
<path d="M51.3203 45.4414H47.8658C48.0446 44.8673 48.0725 44.2384 47.9134 43.6128L46.6477 38.7217C46.4158 37.8254 45.5018 37.2854 44.6045 37.5157L39.096 38.9274L35.3088 24.0346L39.2157 23.0409L41.5575 32.25C41.7861 33.1492 42.7008 33.6928 43.5993 33.4638C44.4986 33.2351 45.0418 32.3211 44.8132 31.4219L40.8364 15.7828C40.6153 14.9134 40.0684 14.1818 39.2971 13.7232C38.5258 13.2649 37.6227 13.1337 36.7523 13.3551L33.1797 14.2635V13.3594C33.1797 11.5071 31.6726 10 29.8203 10H25.7891C23.9368 10 22.4297 11.5071 22.4297 13.3594V16.7188H18.3984C16.5462 16.7188 15.0391 18.2259 15.0391 20.0781V45.4414H11.6797C10.7519 45.4414 10 46.1933 10 47.1211C10 48.0489 10.7519 48.8008 11.6797 48.8008H13.3594V51.3203C13.3594 52.2481 14.1113 53 15.0391 53C15.9668 53 16.7188 52.2481 16.7188 51.3203V48.8008H46.2812V51.3203C46.2812 52.2481 47.0332 53 47.9609 53C48.8887 53 49.6406 52.2481 49.6406 51.3203V48.8008H51.3203C52.2481 48.8008 53 48.0489 53 47.1211C53 46.1933 52.2481 45.4414 51.3203 45.4414ZM33.1797 29.2928L37.2861 45.4414H33.1797V29.2928ZM43.8152 41.1858L44.6593 44.4474L40.7524 45.4411L39.924 42.1827L43.8152 41.1858ZM37.5803 16.6108L38.3877 19.7852L34.4808 20.7789L33.6738 17.6042L37.5803 16.6108ZM22.4297 20.0781V23.3535H18.3984V20.0781H22.4297ZM18.3984 26.7129H22.4297V45.4414H18.3984V26.7129ZM25.7891 45.4414V13.3594H29.8203V45.4414H25.7891Z" fill="white"/>
</svg>
