<svg width="100" height="100" viewBox="0 0 100 100" fill="none" xmlns="http://www.w3.org/2000/svg">
<path d="M87.0188 25L93.75 40.625C93.75 45.8031 88.8531 50 82.8125 50C77.0031 50 72.25 46.1156 71.8969 41.2125C71.8938 41.1562 71.8594 41.1562 71.8531 41.2125C71.5 46.1156 66.7469 50 60.9375 50C55.1281 50 50.375 46.1156 50.0219 41.2125C50.0187 41.1562 49.9844 41.1562 49.9781 41.2125C49.625 46.1156 44.8719 50 39.0625 50C33.2531 50 28.5 46.1156 28.1469 41.2125C28.1437 41.1562 28.1094 41.1562 28.1031 41.2125C27.75 46.1156 22.9969 50 17.1875 50C11.1469 50 6.25 45.8031 6.25 40.625L12.9812 25H87.0188Z" fill="#6C5DD3"/>
<path d="M87.5 18.75H12.5V9.375C12.5 7.65 13.9 6.25 15.625 6.25H84.375C86.1 6.25 87.5 7.65 87.5 9.375V18.75Z" fill="#6C5DD3"/>
<path d="M87.5 55.6436V93.7498H12.5V55.6436C13.9937 56.0311 15.5594 56.2498 17.1875 56.2498C18.8156 56.2498 20.375 55.9873 21.875 55.5967V79.6873C21.875 80.5498 22.575 81.2498 23.4375 81.2498H76.5625C77.425 81.2498 78.125 80.5498 78.125 79.6873V55.5967C79.625 55.9873 81.1844 56.2498 82.8125 56.2498C84.4406 56.2498 86.0062 56.0311 87.5 55.6436Z" fill="#6C5DD3"/>
</svg>
