<svg width="100" height="100" viewBox="0 0 100 100" fill="none" xmlns="http://www.w3.org/2000/svg">
<path d="M78.125 25C74.3219 25 70.9531 26.7438 68.6594 29.4313C68.7156 30.0281 68.75 30.6375 68.75 31.25C68.75 34.7312 67.7781 37.9844 66.1156 40.7844C67.5688 46.0781 72.375 50 78.125 50C85.0188 50 90.625 44.3938 90.625 37.5C90.625 30.6062 85.0188 25 78.125 25Z" fill="#6C5DD3"/>
<path d="M31.25 31.25C31.25 30.6375 31.2844 30.0281 31.3406 29.4313C29.0469 26.7438 25.6781 25 21.875 25C14.9812 25 9.375 30.6062 9.375 37.5C9.375 44.3938 14.9812 50 21.875 50C27.625 50 32.4281 46.0781 33.8812 40.7844C32.2219 37.9844 31.25 34.7312 31.25 31.25Z" fill="#6C5DD3"/>
<path d="M50 46.875C41.3844 46.875 34.375 39.8656 34.375 31.25C34.375 22.6344 41.3844 15.625 50 15.625C58.6156 15.625 65.625 22.6344 65.625 31.25C65.625 39.8656 58.6156 46.875 50 46.875Z" fill="#6C5DD3"/>
<path d="M20.4875 56.25H12.5C7.33125 56.25 3.125 60.4562 3.125 65.625V78.125C3.125 79.8531 4.525 81.25 6.25 81.25H18.75V62.5C18.75 60.2156 19.4125 58.0969 20.4875 56.25Z" fill="#6C5DD3"/>
<path d="M87.5 56.25H79.5094C80.5875 58.0969 81.25 60.2156 81.25 62.5V81.25H93.75C95.4781 81.25 96.875 79.8531 96.875 78.125V65.625C96.875 60.4562 92.6687 56.25 87.5 56.25Z" fill="#6C5DD3"/>
<path d="M75 84.375H25C23.275 84.375 21.875 82.9781 21.875 81.25V62.5C21.875 57.3312 26.0812 53.125 31.25 53.125H68.75C73.9188 53.125 78.125 57.3312 78.125 62.5V81.25C78.125 82.9781 76.7281 84.375 75 84.375Z" fill="#6C5DD3"/>
</svg>
